<svg width="90%" height="100%" viewBox="0 0 820 350" xmlns="http://www.w3.org/2000/svg">
  <defs>
    <radialGradient id="spaceGradient" cx="50%" cy="50%" r="80%">
      <stop offset="0%" stop-color="#001a00"/>
      <stop offset="100%" stop-color="#003300"/>
    </radialGradient>
    <!-- Flame gradient -->
    <linearGradient id="flameGradient" x1="0%" y1="0%" x2="100%" y2="0%">
      <stop offset="0%" stop-color="#00ff00"/>
      <stop offset="100%" stop-color="#003300" stop-opacity="0"/>
    </linearGradient>
  </defs>
  <!-- Space Background -->
  <rect width="820" height="350" fill="url(#spaceGradient)"/>
  <!-- Stars with Twinkling Effect -->
  <g fill="#00ff00">
    <circle cx="100" cy="50" r="1.5">
      <animate attributeName="opacity" values="0;1;0" dur="2s" repeatCount="indefinite"/>
    </circle>
    <circle cx="300" cy="80" r="1.2">
      <animate attributeName="opacity" values="0;1;0" dur="2.5s" repeatCount="indefinite"/>
    </circle>
    <circle cx="500" cy="30" r="1.8">
      <animate attributeName="opacity" values="0;1;0" dur="3s" repeatCount="indefinite"/>
    </circle>
    <circle cx="700" cy="60" r="1.4">
      <animate attributeName="opacity" values="0;1;0" dur="1.8s" repeatCount="indefinite"/>
    </circle>
    <circle cx="250" cy="150" r="1.6">
      <animate attributeName="opacity" values="0;1;0" dur="2.2s" repeatCount="indefinite"/>
    </circle>
    <circle cx="620" cy="200" r="1.3">
      <animate attributeName="opacity" values="0;1;0" dur="2.8s" repeatCount="indefinite"/>
    </circle>
    <circle cx="400" cy="250" r="1.9">
      <animate attributeName="opacity" values="0;1;0" dur="2.7s" repeatCount="indefinite"/>
    </circle>
    <circle cx="150" cy="300" r="1.5">
      <animate attributeName="opacity" values="0;1;0" dur="2.3s" repeatCount="indefinite"/>
    </circle>
  </g>
  <!-- Moving Spaceship -->
  <g id="spaceship">
    <animateTransform attributeName="transform" type="translate" from="-100,175" to="900,175" dur="60s" repeatCount="indefinite"/>
    <g transform="translate(0, 0)">
      <!-- Enhanced Ship Body -->
      <path d="M -40 0 L -30 -20 L 20 -20 L 45 -8 L 45 8 L 20 20 L -30 20 Z" fill="#00ff00"/>
      <!-- Additional Hull Details -->
      <path d="M -20 -20 L -15 -25 L 15 -25 L 20 -20" fill="none" stroke="#00ff00" stroke-width="1"/>
      <path d="M -20 20 L -15 25 L 15 25 L 20 20" fill="none" stroke="#00ff00" stroke-width="1"/>
      <!-- Side Boosters -->
      <circle cx="-25" cy="-15" r="5" fill="#003300" stroke="#00ff00" stroke-width="1"/>
      <circle cx="-25" cy="15" r="5" fill="#003300" stroke="#00ff00" stroke-width="1"/>
      <!-- Enhanced Cockpit -->
      <path d="M 15 -12 L 35 -8 L 35 8 L 15 12 Z" fill="#003300" stroke="#00ff00" stroke-width="1"/>
      <!-- Wing Accents -->
      <line x1="-15" y1="-20" x2="0" y2="-15" stroke="#00ff00" stroke-width="1"/>
      <line x1="-15" y1="20" x2="0" y2="15" stroke="#00ff00" stroke-width="1"/>
      <!-- Triple Engine Flames -->
      <g>
        <!-- Center Flame -->
        <path d="M -40 -2 L -60 0 L -40 2" fill="url(#flameGradient)">
          <animate attributeName="d" 
                   values="M -40 -2 L -60 0 L -40 2;M -40 -2 L -65 0 L -40 2;M -40 -2 L -60 0 L -40 2" 
                   dur="0.5s" 
                   repeatCount="indefinite"/>
        </path>
        <!-- Top Flame -->
        <path d="M -40 -15 L -55 -15 L -40 -13" fill="url(#flameGradient)" transform="rotate(10 -40 -15)">
          <animate attributeName="d" 
                   values="M -40 -15 L -55 -15 L -40 -13;M -40 -15 L -60 -15 L -40 -13;M -40 -15 L -55 -15 L -40 -13" 
                   dur="0.6s" 
                   repeatCount="indefinite"/>
        </path>
        <!-- Bottom Flame -->
        <path d="M -40 15 L -55 15 L -40 13" fill="url(#flameGradient)" transform="rotate(-10 -40 15)">
          <animate attributeName="d" 
                   values="M -40 15 L -55 15 L -40 13;M -40 15 L -60 15 L -40 13;M -40 15 L -55 15 L -40 13" 
                   dur="0.45s" 
                   repeatCount="indefinite"/>
        </path>
      </g>
    </g>
  </g>
</svg>